<mxfile host="Electron" agent="Mozilla/5.0 (X11; Linux x86_64) AppleWebKit/537.36 (KHTML, like Gecko) draw.io/24.7.5 Chrome/126.0.6478.183 Electron/31.3.0 Safari/537.36" version="24.7.5">
  <diagram name="Page-1" id="tmaxlOd2o0jZHt15St0m">
    <mxGraphModel dx="1436" dy="1132" grid="1" gridSize="10" guides="1" tooltips="1" connect="1" arrows="1" fold="1" page="1" pageScale="1" pageWidth="850" pageHeight="1100" math="0" shadow="0">
      <root>
        <mxCell id="0" />
        <mxCell id="1" parent="0" />
        <mxCell id="O3AghsNvSJwPv29jhGSK-1" value="" style="verticalLabelPosition=bottom;shadow=0;dashed=0;align=center;html=1;verticalAlign=top;shape=mxgraph.electrical.transistors.nmos;pointerEvents=1;flipH=1;strokeWidth=2;" parent="1" vertex="1">
          <mxGeometry x="200" y="343" width="60" height="100" as="geometry" />
        </mxCell>
        <mxCell id="O3AghsNvSJwPv29jhGSK-2" value="" style="verticalLabelPosition=bottom;shadow=0;dashed=0;align=center;html=1;verticalAlign=top;shape=mxgraph.electrical.transistors.nmos;pointerEvents=1;flipH=1;strokeWidth=2;" parent="1" vertex="1">
          <mxGeometry x="200" y="473" width="60" height="100" as="geometry" />
        </mxCell>
        <mxCell id="O3AghsNvSJwPv29jhGSK-3" style="edgeStyle=orthogonalEdgeStyle;rounded=0;orthogonalLoop=1;jettySize=auto;html=1;exitX=1;exitY=1;exitDx=0;exitDy=0;exitPerimeter=0;entryX=1;entryY=0;entryDx=0;entryDy=0;entryPerimeter=0;endArrow=none;endFill=0;strokeWidth=2;" parent="1" source="O3AghsNvSJwPv29jhGSK-1" target="O3AghsNvSJwPv29jhGSK-2" edge="1">
          <mxGeometry relative="1" as="geometry" />
        </mxCell>
        <mxCell id="O3AghsNvSJwPv29jhGSK-4" value="" style="verticalLabelPosition=bottom;shadow=0;dashed=0;align=center;html=1;verticalAlign=top;shape=mxgraph.electrical.transistors.nmos;pointerEvents=1;flipH=0;strokeWidth=2;strokeColor=#EA6B66;" parent="1" vertex="1">
          <mxGeometry x="314" y="343" width="60" height="100" as="geometry" />
        </mxCell>
        <mxCell id="O3AghsNvSJwPv29jhGSK-5" value="" style="verticalLabelPosition=bottom;shadow=0;dashed=0;align=center;html=1;verticalAlign=top;shape=mxgraph.electrical.transistors.nmos;pointerEvents=1;flipH=0;strokeWidth=2;" parent="1" vertex="1">
          <mxGeometry x="314" y="473" width="60" height="100" as="geometry" />
        </mxCell>
        <mxCell id="O3AghsNvSJwPv29jhGSK-6" style="edgeStyle=orthogonalEdgeStyle;rounded=0;orthogonalLoop=1;jettySize=auto;html=1;exitX=1;exitY=1;exitDx=0;exitDy=0;exitPerimeter=0;entryX=1;entryY=0;entryDx=0;entryDy=0;entryPerimeter=0;endArrow=none;endFill=0;strokeWidth=2;" parent="1" source="O3AghsNvSJwPv29jhGSK-4" target="O3AghsNvSJwPv29jhGSK-5" edge="1">
          <mxGeometry relative="1" as="geometry" />
        </mxCell>
        <mxCell id="O3AghsNvSJwPv29jhGSK-7" value="" style="endArrow=none;html=1;rounded=0;entryX=0;entryY=0.5;entryDx=0;entryDy=0;entryPerimeter=0;strokeWidth=2;" parent="1" target="O3AghsNvSJwPv29jhGSK-4" edge="1">
          <mxGeometry width="50" height="50" relative="1" as="geometry">
            <mxPoint x="260" y="393" as="sourcePoint" />
            <mxPoint x="310" y="343" as="targetPoint" />
          </mxGeometry>
        </mxCell>
        <mxCell id="O3AghsNvSJwPv29jhGSK-8" value="" style="endArrow=none;html=1;rounded=0;entryX=0;entryY=0.5;entryDx=0;entryDy=0;entryPerimeter=0;strokeWidth=2;" parent="1" source="O3AghsNvSJwPv29jhGSK-12" target="O3AghsNvSJwPv29jhGSK-62" edge="1">
          <mxGeometry width="50" height="50" relative="1" as="geometry">
            <mxPoint x="260" y="523" as="sourcePoint" />
            <mxPoint x="590" y="523" as="targetPoint" />
          </mxGeometry>
        </mxCell>
        <mxCell id="O3AghsNvSJwPv29jhGSK-9" value="" style="endArrow=none;html=1;rounded=0;strokeWidth=2;" parent="1" edge="1">
          <mxGeometry width="50" height="50" relative="1" as="geometry">
            <mxPoint x="280" y="523" as="sourcePoint" />
            <mxPoint x="280" y="313" as="targetPoint" />
          </mxGeometry>
        </mxCell>
        <mxCell id="O3AghsNvSJwPv29jhGSK-13" value="" style="endArrow=none;html=1;rounded=0;entryDx=0;entryDy=0;entryPerimeter=0;strokeWidth=2;" parent="1" target="O3AghsNvSJwPv29jhGSK-12" edge="1">
          <mxGeometry width="50" height="50" relative="1" as="geometry">
            <mxPoint x="260" y="523" as="sourcePoint" />
            <mxPoint x="340" y="523" as="targetPoint" />
          </mxGeometry>
        </mxCell>
        <mxCell id="O3AghsNvSJwPv29jhGSK-12" value="" style="shape=waypoint;sketch=0;fillStyle=solid;size=6;pointerEvents=1;points=[];fillColor=none;resizable=0;rotatable=0;perimeter=centerPerimeter;snapToPoint=1;strokeWidth=2;" parent="1" vertex="1">
          <mxGeometry x="270" y="513" width="20" height="20" as="geometry" />
        </mxCell>
        <mxCell id="O3AghsNvSJwPv29jhGSK-14" value="" style="endArrow=none;html=1;rounded=0;strokeWidth=2;" parent="1" edge="1">
          <mxGeometry width="50" height="50" relative="1" as="geometry">
            <mxPoint x="200" y="313" as="sourcePoint" />
            <mxPoint x="280" y="313" as="targetPoint" />
          </mxGeometry>
        </mxCell>
        <mxCell id="O3AghsNvSJwPv29jhGSK-15" value="" style="endArrow=none;html=1;rounded=0;strokeWidth=2;" parent="1" source="O3AghsNvSJwPv29jhGSK-16" edge="1">
          <mxGeometry width="50" height="50" relative="1" as="geometry">
            <mxPoint x="200" y="346" as="sourcePoint" />
            <mxPoint x="200" y="266" as="targetPoint" />
          </mxGeometry>
        </mxCell>
        <mxCell id="O3AghsNvSJwPv29jhGSK-17" value="" style="endArrow=none;html=1;rounded=0;strokeWidth=2;" parent="1" target="O3AghsNvSJwPv29jhGSK-16" edge="1">
          <mxGeometry width="50" height="50" relative="1" as="geometry">
            <mxPoint x="200" y="346" as="sourcePoint" />
            <mxPoint x="200" y="266" as="targetPoint" />
          </mxGeometry>
        </mxCell>
        <mxCell id="O3AghsNvSJwPv29jhGSK-16" value="" style="shape=waypoint;sketch=0;fillStyle=solid;size=6;pointerEvents=1;points=[];fillColor=none;resizable=0;rotatable=0;perimeter=centerPerimeter;snapToPoint=1;strokeWidth=2;" parent="1" vertex="1">
          <mxGeometry x="190" y="303" width="20" height="20" as="geometry" />
        </mxCell>
        <mxCell id="O3AghsNvSJwPv29jhGSK-18" value="" style="endArrow=none;html=1;rounded=0;strokeWidth=2;strokeColor=#EA6B66;" parent="1" edge="1">
          <mxGeometry width="50" height="50" relative="1" as="geometry">
            <mxPoint x="374" y="363" as="sourcePoint" />
            <mxPoint x="400" y="363" as="targetPoint" />
          </mxGeometry>
        </mxCell>
        <mxCell id="O3AghsNvSJwPv29jhGSK-19" value="" style="endArrow=none;html=1;rounded=0;strokeWidth=2;strokeColor=#EA6B66;" parent="1" edge="1">
          <mxGeometry width="50" height="50" relative="1" as="geometry">
            <mxPoint x="374" y="423" as="sourcePoint" />
            <mxPoint x="400" y="423" as="targetPoint" />
          </mxGeometry>
        </mxCell>
        <mxCell id="O3AghsNvSJwPv29jhGSK-20" value="" style="endArrow=none;html=1;rounded=0;strokeWidth=2;strokeColor=#EA6B66;" parent="1" edge="1">
          <mxGeometry width="50" height="50" relative="1" as="geometry">
            <mxPoint x="400" y="423" as="sourcePoint" />
            <mxPoint x="400" y="363" as="targetPoint" />
          </mxGeometry>
        </mxCell>
        <mxCell id="O3AghsNvSJwPv29jhGSK-21" value="" style="shape=waypoint;sketch=0;fillStyle=solid;size=6;pointerEvents=1;points=[];fillColor=none;resizable=0;rotatable=0;perimeter=centerPerimeter;snapToPoint=1;strokeWidth=2;strokeColor=#EA6B66;" parent="1" vertex="1">
          <mxGeometry x="364" y="413" width="20" height="20" as="geometry" />
        </mxCell>
        <mxCell id="O3AghsNvSJwPv29jhGSK-22" value="" style="shape=waypoint;sketch=0;fillStyle=solid;size=6;pointerEvents=1;points=[];fillColor=none;resizable=0;rotatable=0;perimeter=centerPerimeter;snapToPoint=1;strokeWidth=2;strokeColor=#EA6B66;" parent="1" vertex="1">
          <mxGeometry x="364" y="353" width="20" height="20" as="geometry" />
        </mxCell>
        <mxCell id="O3AghsNvSJwPv29jhGSK-24" value="" style="endArrow=none;html=1;rounded=0;exitX=1;exitY=0;exitDx=0;exitDy=0;exitPerimeter=0;strokeWidth=2;strokeColor=#EA6B66;" parent="1" source="O3AghsNvSJwPv29jhGSK-4" edge="1">
          <mxGeometry width="50" height="50" relative="1" as="geometry">
            <mxPoint x="373.72" y="342.9971428571428" as="sourcePoint" />
            <mxPoint x="374" y="313" as="targetPoint" />
          </mxGeometry>
        </mxCell>
        <mxCell id="O3AghsNvSJwPv29jhGSK-25" value="" style="verticalLabelPosition=bottom;shadow=0;dashed=0;align=center;html=1;verticalAlign=top;shape=mxgraph.electrical.transistors.pmos;pointerEvents=1;direction=east;flipH=1;strokeWidth=2;" parent="1" vertex="1">
          <mxGeometry x="374" y="160" width="60" height="100" as="geometry" />
        </mxCell>
        <mxCell id="O3AghsNvSJwPv29jhGSK-26" value="" style="verticalLabelPosition=bottom;shadow=0;dashed=0;align=center;html=1;verticalAlign=top;shape=mxgraph.electrical.transistors.pmos;pointerEvents=1;direction=east;flipH=1;strokeWidth=2;" parent="1" vertex="1">
          <mxGeometry x="374" y="70" width="60" height="100" as="geometry" />
        </mxCell>
        <mxCell id="O3AghsNvSJwPv29jhGSK-27" value="" style="endArrow=none;html=1;rounded=0;strokeWidth=2;" parent="1" edge="1">
          <mxGeometry width="50" height="50" relative="1" as="geometry">
            <mxPoint x="374" y="313" as="sourcePoint" />
            <mxPoint x="374" y="250" as="targetPoint" />
          </mxGeometry>
        </mxCell>
        <mxCell id="O3AghsNvSJwPv29jhGSK-28" value="" style="endArrow=none;html=1;rounded=0;exitDx=0;exitDy=0;exitPerimeter=0;entryX=0.523;entryY=0.498;entryDx=0;entryDy=0;entryPerimeter=0;strokeWidth=2;" parent="1" source="O3AghsNvSJwPv29jhGSK-33" target="O3AghsNvSJwPv29jhGSK-37" edge="1">
          <mxGeometry width="50" height="50" relative="1" as="geometry">
            <mxPoint x="470" y="170" as="sourcePoint" />
            <mxPoint x="520" y="120" as="targetPoint" />
          </mxGeometry>
        </mxCell>
        <mxCell id="O3AghsNvSJwPv29jhGSK-29" value="" style="endArrow=none;html=1;rounded=0;strokeWidth=2;" parent="1" edge="1">
          <mxGeometry width="50" height="50" relative="1" as="geometry">
            <mxPoint x="452" y="280" as="sourcePoint" />
            <mxPoint x="452" y="120" as="targetPoint" />
          </mxGeometry>
        </mxCell>
        <mxCell id="O3AghsNvSJwPv29jhGSK-30" value="" style="endArrow=none;html=1;rounded=0;strokeWidth=2;" parent="1" source="O3AghsNvSJwPv29jhGSK-31" edge="1">
          <mxGeometry width="50" height="50" relative="1" as="geometry">
            <mxPoint x="374" y="280" as="sourcePoint" />
            <mxPoint x="452" y="280" as="targetPoint" />
          </mxGeometry>
        </mxCell>
        <mxCell id="O3AghsNvSJwPv29jhGSK-32" value="" style="endArrow=none;html=1;rounded=0;strokeWidth=2;" parent="1" target="O3AghsNvSJwPv29jhGSK-31" edge="1">
          <mxGeometry width="50" height="50" relative="1" as="geometry">
            <mxPoint x="374" y="280" as="sourcePoint" />
            <mxPoint x="450" y="280" as="targetPoint" />
          </mxGeometry>
        </mxCell>
        <mxCell id="O3AghsNvSJwPv29jhGSK-31" value="" style="shape=waypoint;sketch=0;fillStyle=solid;size=6;pointerEvents=1;points=[];fillColor=none;resizable=0;rotatable=0;perimeter=centerPerimeter;snapToPoint=1;strokeWidth=2;" parent="1" vertex="1">
          <mxGeometry x="364" y="270" width="20" height="20" as="geometry" />
        </mxCell>
        <mxCell id="O3AghsNvSJwPv29jhGSK-35" value="" style="endArrow=none;html=1;rounded=0;exitX=0;exitY=0.5;exitDx=0;exitDy=0;exitPerimeter=0;strokeWidth=2;" parent="1" source="O3AghsNvSJwPv29jhGSK-26" target="O3AghsNvSJwPv29jhGSK-33" edge="1">
          <mxGeometry width="50" height="50" relative="1" as="geometry">
            <mxPoint x="434" y="120" as="sourcePoint" />
            <mxPoint x="520" y="120" as="targetPoint" />
          </mxGeometry>
        </mxCell>
        <mxCell id="O3AghsNvSJwPv29jhGSK-33" value="" style="shape=waypoint;sketch=0;fillStyle=solid;size=6;pointerEvents=1;points=[];fillColor=none;resizable=0;rotatable=0;perimeter=centerPerimeter;snapToPoint=1;strokeWidth=2;" parent="1" vertex="1">
          <mxGeometry x="442" y="110" width="20" height="20" as="geometry" />
        </mxCell>
        <mxCell id="O3AghsNvSJwPv29jhGSK-36" value="" style="verticalLabelPosition=bottom;shadow=0;dashed=0;align=center;html=1;verticalAlign=top;shape=mxgraph.electrical.transistors.pmos;pointerEvents=1;direction=east;flipH=0;strokeWidth=2;strokeColor=#EA6B66;" parent="1" vertex="1">
          <mxGeometry x="480" y="160" width="60" height="100" as="geometry" />
        </mxCell>
        <mxCell id="O3AghsNvSJwPv29jhGSK-37" value="" style="verticalLabelPosition=bottom;shadow=0;dashed=0;align=center;html=1;verticalAlign=top;shape=mxgraph.electrical.transistors.pmos;pointerEvents=1;direction=east;flipH=0;strokeWidth=2;" parent="1" vertex="1">
          <mxGeometry x="480" y="70" width="60" height="100" as="geometry" />
        </mxCell>
        <mxCell id="O3AghsNvSJwPv29jhGSK-39" value="" style="endArrow=none;html=1;rounded=0;exitX=0;exitY=0.5;exitDx=0;exitDy=0;exitPerimeter=0;entryX=0;entryY=0.5;entryDx=0;entryDy=0;entryPerimeter=0;strokeWidth=2;" parent="1" source="O3AghsNvSJwPv29jhGSK-25" target="O3AghsNvSJwPv29jhGSK-36" edge="1">
          <mxGeometry width="50" height="50" relative="1" as="geometry">
            <mxPoint x="450" y="220" as="sourcePoint" />
            <mxPoint x="500" y="170" as="targetPoint" />
          </mxGeometry>
        </mxCell>
        <mxCell id="O3AghsNvSJwPv29jhGSK-40" value="" style="endArrow=none;html=1;rounded=0;strokeWidth=2;strokeColor=#EA6B66;" parent="1" edge="1">
          <mxGeometry width="50" height="50" relative="1" as="geometry">
            <mxPoint x="540" y="180" as="sourcePoint" />
            <mxPoint x="566" y="180" as="targetPoint" />
          </mxGeometry>
        </mxCell>
        <mxCell id="O3AghsNvSJwPv29jhGSK-41" value="" style="endArrow=none;html=1;rounded=0;strokeWidth=2;strokeColor=#EA6B66;" parent="1" edge="1">
          <mxGeometry width="50" height="50" relative="1" as="geometry">
            <mxPoint x="540" y="240" as="sourcePoint" />
            <mxPoint x="566" y="240" as="targetPoint" />
          </mxGeometry>
        </mxCell>
        <mxCell id="O3AghsNvSJwPv29jhGSK-42" value="" style="endArrow=none;html=1;rounded=0;strokeWidth=2;strokeColor=#EA6B66;" parent="1" edge="1">
          <mxGeometry width="50" height="50" relative="1" as="geometry">
            <mxPoint x="566" y="240" as="sourcePoint" />
            <mxPoint x="566" y="180" as="targetPoint" />
          </mxGeometry>
        </mxCell>
        <mxCell id="O3AghsNvSJwPv29jhGSK-43" value="" style="shape=waypoint;sketch=0;fillStyle=solid;size=6;pointerEvents=1;points=[];fillColor=none;resizable=0;rotatable=0;perimeter=centerPerimeter;snapToPoint=1;strokeWidth=2;strokeColor=#EA6B66;" parent="1" vertex="1">
          <mxGeometry x="530" y="230" width="20" height="20" as="geometry" />
        </mxCell>
        <mxCell id="O3AghsNvSJwPv29jhGSK-44" value="" style="shape=waypoint;sketch=0;fillStyle=solid;size=6;pointerEvents=1;points=[];fillColor=none;resizable=0;rotatable=0;perimeter=centerPerimeter;snapToPoint=1;strokeWidth=2;strokeColor=#EA6B66;" parent="1" vertex="1">
          <mxGeometry x="530" y="170" width="20" height="20" as="geometry" />
        </mxCell>
        <mxCell id="O3AghsNvSJwPv29jhGSK-45" value="" style="endArrow=none;html=1;rounded=0;entryX=1;entryY=1;entryDx=0;entryDy=0;entryPerimeter=0;exitX=1;exitY=0;exitDx=0;exitDy=0;exitPerimeter=0;strokeWidth=2;" parent="1" source="O3AghsNvSJwPv29jhGSK-47" target="O3AghsNvSJwPv29jhGSK-36" edge="1">
          <mxGeometry width="50" height="50" relative="1" as="geometry">
            <mxPoint x="540" y="400" as="sourcePoint" />
            <mxPoint x="540" y="260.0028571428572" as="targetPoint" />
          </mxGeometry>
        </mxCell>
        <mxCell id="O3AghsNvSJwPv29jhGSK-47" value="" style="verticalLabelPosition=bottom;shadow=0;dashed=0;align=center;html=1;verticalAlign=top;shape=mxgraph.electrical.transistors.nmos;pointerEvents=1;flipH=0;strokeWidth=2;" parent="1" vertex="1">
          <mxGeometry x="491" y="430" width="60" height="60" as="geometry" />
        </mxCell>
        <mxCell id="O3AghsNvSJwPv29jhGSK-48" value="" style="verticalLabelPosition=bottom;shadow=0;dashed=0;align=center;html=1;verticalAlign=top;shape=mxgraph.electrical.transistors.nmos;pointerEvents=1;flipH=0;strokeWidth=2;" parent="1" vertex="1">
          <mxGeometry x="491" y="470" width="60" height="60" as="geometry" />
        </mxCell>
        <mxCell id="O3AghsNvSJwPv29jhGSK-49" value="" style="verticalLabelPosition=bottom;shadow=0;dashed=0;align=center;html=1;verticalAlign=top;shape=mxgraph.electrical.transistors.nmos;pointerEvents=1;flipH=0;strokeWidth=2;" parent="1" vertex="1">
          <mxGeometry x="491" y="510" width="60" height="60" as="geometry" />
        </mxCell>
        <mxCell id="O3AghsNvSJwPv29jhGSK-50" value="" style="endArrow=none;html=1;rounded=0;exitX=0.59;exitY=0.509;exitDx=0;exitDy=0;exitPerimeter=0;entryX=0;entryY=0.5;entryDx=0;entryDy=0;entryPerimeter=0;strokeWidth=2;" parent="1" target="O3AghsNvSJwPv29jhGSK-61" edge="1">
          <mxGeometry width="50" height="50" relative="1" as="geometry">
            <mxPoint x="349.4" y="393.42857142857133" as="sourcePoint" />
            <mxPoint x="520" y="392.58" as="targetPoint" />
          </mxGeometry>
        </mxCell>
        <mxCell id="O3AghsNvSJwPv29jhGSK-51" value="" style="shape=waypoint;sketch=0;fillStyle=solid;size=6;pointerEvents=1;points=[];fillColor=none;resizable=0;rotatable=0;perimeter=centerPerimeter;snapToPoint=1;strokeWidth=2;" parent="1" vertex="1">
          <mxGeometry x="530" y="383" width="20" height="20" as="geometry" />
        </mxCell>
        <mxCell id="O3AghsNvSJwPv29jhGSK-52" value="" style="endArrow=none;html=1;rounded=0;exitX=0;exitY=0.5;exitDx=0;exitDy=0;exitPerimeter=0;strokeWidth=2;" parent="1" edge="1">
          <mxGeometry width="50" height="50" relative="1" as="geometry">
            <mxPoint x="501.85909090909087" y="540" as="sourcePoint" />
            <mxPoint x="501.86" y="437" as="targetPoint" />
          </mxGeometry>
        </mxCell>
        <mxCell id="O3AghsNvSJwPv29jhGSK-54" value="" style="shape=waypoint;sketch=0;fillStyle=solid;size=6;pointerEvents=1;points=[];fillColor=none;resizable=0;rotatable=0;perimeter=centerPerimeter;snapToPoint=1;strokeWidth=2;" parent="1" vertex="1">
          <mxGeometry x="492" y="490" width="20" height="20" as="geometry" />
        </mxCell>
        <mxCell id="O3AghsNvSJwPv29jhGSK-55" value="" style="endArrow=none;html=1;rounded=0;strokeWidth=2;" parent="1" edge="1">
          <mxGeometry width="50" height="50" relative="1" as="geometry">
            <mxPoint x="500" y="438" as="sourcePoint" />
            <mxPoint x="540" y="438" as="targetPoint" />
          </mxGeometry>
        </mxCell>
        <mxCell id="O3AghsNvSJwPv29jhGSK-58" value="" style="endArrow=none;html=1;rounded=0;exitX=0;exitY=0.5;exitDx=0;exitDy=0;exitPerimeter=0;strokeWidth=2;" parent="1" source="O3AghsNvSJwPv29jhGSK-47" target="O3AghsNvSJwPv29jhGSK-57" edge="1">
          <mxGeometry width="50" height="50" relative="1" as="geometry">
            <mxPoint x="502" y="460" as="sourcePoint" />
            <mxPoint x="502" y="417" as="targetPoint" />
          </mxGeometry>
        </mxCell>
        <mxCell id="O3AghsNvSJwPv29jhGSK-57" value="" style="shape=waypoint;sketch=0;fillStyle=solid;size=6;pointerEvents=1;points=[];fillColor=none;resizable=0;rotatable=0;perimeter=centerPerimeter;snapToPoint=1;strokeWidth=2;" parent="1" vertex="1">
          <mxGeometry x="492" y="450" width="20" height="20" as="geometry" />
        </mxCell>
        <mxCell id="O3AghsNvSJwPv29jhGSK-59" value="" style="shape=waypoint;sketch=0;fillStyle=solid;size=6;pointerEvents=1;points=[];fillColor=none;resizable=0;rotatable=0;perimeter=centerPerimeter;snapToPoint=1;strokeWidth=2;" parent="1" vertex="1">
          <mxGeometry x="530" y="428" width="20" height="20" as="geometry" />
        </mxCell>
        <mxCell id="O3AghsNvSJwPv29jhGSK-61" value="" style="verticalLabelPosition=bottom;shadow=0;dashed=0;align=center;html=1;verticalAlign=top;shape=mxgraph.electrical.transistors.nmos;pointerEvents=1;flipH=0;strokeWidth=2;" parent="1" vertex="1">
          <mxGeometry x="620" y="343" width="60" height="100" as="geometry" />
        </mxCell>
        <mxCell id="O3AghsNvSJwPv29jhGSK-62" value="" style="verticalLabelPosition=bottom;shadow=0;dashed=0;align=center;html=1;verticalAlign=top;shape=mxgraph.electrical.transistors.nmos;pointerEvents=1;flipH=0;strokeWidth=2;" parent="1" vertex="1">
          <mxGeometry x="620" y="473" width="60" height="100" as="geometry" />
        </mxCell>
        <mxCell id="O3AghsNvSJwPv29jhGSK-63" style="edgeStyle=orthogonalEdgeStyle;rounded=0;orthogonalLoop=1;jettySize=auto;html=1;exitX=1;exitY=1;exitDx=0;exitDy=0;exitPerimeter=0;entryX=1;entryY=0;entryDx=0;entryDy=0;entryPerimeter=0;endArrow=none;endFill=0;strokeWidth=2;" parent="1" source="O3AghsNvSJwPv29jhGSK-61" target="O3AghsNvSJwPv29jhGSK-62" edge="1">
          <mxGeometry relative="1" as="geometry" />
        </mxCell>
        <mxCell id="O3AghsNvSJwPv29jhGSK-64" value="" style="verticalLabelPosition=bottom;shadow=0;dashed=0;align=center;html=1;verticalAlign=top;shape=mxgraph.electrical.transistors.pmos;pointerEvents=1;direction=east;flipH=0;strokeWidth=2;" parent="1" vertex="1">
          <mxGeometry x="631" y="60" width="60" height="60" as="geometry" />
        </mxCell>
        <mxCell id="O3AghsNvSJwPv29jhGSK-65" value="" style="verticalLabelPosition=bottom;shadow=0;dashed=0;align=center;html=1;verticalAlign=top;shape=mxgraph.electrical.transistors.pmos;pointerEvents=1;direction=east;flipH=0;strokeWidth=2;" parent="1" vertex="1">
          <mxGeometry x="631" y="100" width="60" height="60" as="geometry" />
        </mxCell>
        <mxCell id="O3AghsNvSJwPv29jhGSK-66" value="" style="verticalLabelPosition=bottom;shadow=0;dashed=0;align=center;html=1;verticalAlign=top;shape=mxgraph.electrical.transistors.pmos;pointerEvents=1;direction=east;flipH=0;strokeWidth=2;" parent="1" vertex="1">
          <mxGeometry x="631" y="140" width="60" height="60" as="geometry" />
        </mxCell>
        <mxCell id="O3AghsNvSJwPv29jhGSK-67" value="" style="endArrow=none;html=1;rounded=0;exitX=1;exitY=0;exitDx=0;exitDy=0;exitPerimeter=0;strokeWidth=2;" parent="1" source="O3AghsNvSJwPv29jhGSK-61" edge="1">
          <mxGeometry width="50" height="50" relative="1" as="geometry">
            <mxPoint x="630" y="250" as="sourcePoint" />
            <mxPoint x="680" y="200" as="targetPoint" />
          </mxGeometry>
        </mxCell>
        <mxCell id="O3AghsNvSJwPv29jhGSK-68" value="" style="endArrow=none;html=1;rounded=0;strokeWidth=2;" parent="1" edge="1">
          <mxGeometry width="50" height="50" relative="1" as="geometry">
            <mxPoint x="642" y="209" as="sourcePoint" />
            <mxPoint x="642" y="89" as="targetPoint" />
          </mxGeometry>
        </mxCell>
        <mxCell id="O3AghsNvSJwPv29jhGSK-69" value="" style="endArrow=none;html=1;rounded=0;strokeWidth=2;" parent="1" edge="1">
          <mxGeometry width="50" height="50" relative="1" as="geometry">
            <mxPoint x="492" y="209.85" as="sourcePoint" />
            <mxPoint x="680" y="210" as="targetPoint" />
          </mxGeometry>
        </mxCell>
        <mxCell id="O3AghsNvSJwPv29jhGSK-70" value="" style="shape=waypoint;sketch=0;fillStyle=solid;size=6;pointerEvents=1;points=[];fillColor=none;resizable=0;rotatable=0;perimeter=centerPerimeter;snapToPoint=1;strokeWidth=2;" parent="1" vertex="1">
          <mxGeometry x="632" y="200" width="20" height="20" as="geometry" />
        </mxCell>
        <mxCell id="O3AghsNvSJwPv29jhGSK-71" value="" style="shape=waypoint;sketch=0;fillStyle=solid;size=6;pointerEvents=1;points=[];fillColor=none;resizable=0;rotatable=0;perimeter=centerPerimeter;snapToPoint=1;strokeWidth=2;" parent="1" vertex="1">
          <mxGeometry x="632" y="160" width="20" height="20" as="geometry" />
        </mxCell>
        <mxCell id="O3AghsNvSJwPv29jhGSK-73" value="" style="shape=waypoint;sketch=0;fillStyle=solid;size=6;pointerEvents=1;points=[];fillColor=none;resizable=0;rotatable=0;perimeter=centerPerimeter;snapToPoint=1;strokeWidth=2;" parent="1" vertex="1">
          <mxGeometry x="632" y="120" width="20" height="20" as="geometry" />
        </mxCell>
        <mxCell id="O3AghsNvSJwPv29jhGSK-75" value="" style="endArrow=none;html=1;rounded=0;strokeWidth=4;" parent="1" edge="1">
          <mxGeometry width="50" height="50" relative="1" as="geometry">
            <mxPoint x="350" y="60" as="sourcePoint" />
            <mxPoint x="704" y="60" as="targetPoint" />
          </mxGeometry>
        </mxCell>
        <mxCell id="O3AghsNvSJwPv29jhGSK-76" value="" style="endArrow=none;html=1;rounded=0;strokeWidth=2;" parent="1" edge="1">
          <mxGeometry width="50" height="50" relative="1" as="geometry">
            <mxPoint x="374" y="90" as="sourcePoint" />
            <mxPoint x="374" y="60" as="targetPoint" />
          </mxGeometry>
        </mxCell>
        <mxCell id="O3AghsNvSJwPv29jhGSK-77" value="" style="endArrow=none;html=1;rounded=0;strokeWidth=2;" parent="1" edge="1">
          <mxGeometry width="50" height="50" relative="1" as="geometry">
            <mxPoint x="540" y="90" as="sourcePoint" />
            <mxPoint x="540" y="60" as="targetPoint" />
          </mxGeometry>
        </mxCell>
        <mxCell id="O3AghsNvSJwPv29jhGSK-81" value="" style="endArrow=none;html=1;rounded=0;strokeWidth=2;" parent="1" edge="1">
          <mxGeometry width="50" height="50" relative="1" as="geometry">
            <mxPoint x="540.06" y="577" as="sourcePoint" />
            <mxPoint x="540" y="557" as="targetPoint" />
          </mxGeometry>
        </mxCell>
        <mxCell id="O3AghsNvSJwPv29jhGSK-82" value="" style="endArrow=none;html=1;rounded=0;strokeWidth=2;" parent="1" edge="1">
          <mxGeometry width="50" height="50" relative="1" as="geometry">
            <mxPoint x="374" y="577" as="sourcePoint" />
            <mxPoint x="374" y="557" as="targetPoint" />
          </mxGeometry>
        </mxCell>
        <mxCell id="O3AghsNvSJwPv29jhGSK-83" value="" style="endArrow=none;html=1;rounded=0;strokeWidth=2;" parent="1" edge="1">
          <mxGeometry width="50" height="50" relative="1" as="geometry">
            <mxPoint x="200" y="577" as="sourcePoint" />
            <mxPoint x="200" y="557" as="targetPoint" />
          </mxGeometry>
        </mxCell>
        <mxCell id="O3AghsNvSJwPv29jhGSK-88" value="" style="endArrow=none;html=1;rounded=0;strokeWidth=4;" parent="1" edge="1">
          <mxGeometry width="50" height="50" relative="1" as="geometry">
            <mxPoint x="710" y="578" as="sourcePoint" />
            <mxPoint x="170" y="578" as="targetPoint" />
          </mxGeometry>
        </mxCell>
        <mxCell id="O3AghsNvSJwPv29jhGSK-89" value="" style="endArrow=none;html=1;rounded=0;strokeWidth=2;" parent="1" edge="1">
          <mxGeometry width="50" height="50" relative="1" as="geometry">
            <mxPoint x="680" y="567" as="sourcePoint" />
            <mxPoint x="680" y="577" as="targetPoint" />
          </mxGeometry>
        </mxCell>
      </root>
    </mxGraphModel>
  </diagram>
</mxfile>
